<svg width="142" height="138" viewBox="0 0 142 138" fill="none" xmlns="http://www.w3.org/2000/svg">
<path d="M133.12 89.1447C134.453 88.5285 138.902 87.2497 140.235 83.7039C141.567 80.1581 141.49 60.2669 140.235 56.0816C138.979 51.8964 136.932 48.5536 133.12 45.2001C130.804 43.1633 126.424 41.0149 126.424 41.0149L10.9121 0L5.88988 1.25556C5.88988 1.25556 2.92964 2.49264 1.28616 6.2778C-0.178656 9.2074 -0.66185 35.3765 1.28616 39.7594C3.23417 44.1422 4.21574 44.3631 5.47136 45.6186C6.72697 46.8742 126.005 88.7262 127.261 89.1447C128.516 89.5632 131.787 89.7609 133.12 89.1447Z" fill="white"/>
<path d="M0.371983 98.1011C0.372035 101.868 -0.465005 129.49 0.371983 132.42C1.20897 135.349 6.64978 137.442 6.64978 137.442C6.64978 137.442 8.32392 138.698 14.1831 137.442C20.0424 136.186 104.165 105.216 106.257 103.96C108.35 102.705 107.513 100.194 106.257 99.7752C105.002 99.3567 52.2684 79.2677 48.9203 78.8492C45.5722 78.4307 43.061 78.8492 43.061 78.8492L6.64978 92.2418C6.64978 92.2418 0.371932 94.3344 0.371983 98.1011Z" fill="white"/>
</svg>
