<svg width="255" height="255" viewBox="0 0 255 255" fill="none" xmlns="http://www.w3.org/2000/svg">
<rect width="255" height="255" fill="#440890"/>
<path d="M189.12 148.145C190.453 147.529 194.902 146.25 196.235 142.704C197.567 139.158 197.49 119.267 196.235 115.082C194.979 110.896 192.932 107.554 189.12 104.2C186.804 102.163 182.424 100.015 182.424 100.015L66.9121 59L61.8899 60.2556C61.8899 60.2556 58.9296 61.4926 57.2862 65.2778C55.8213 68.2074 55.3381 94.3765 57.2862 98.7594C59.2342 103.142 60.2157 103.363 61.4714 104.619C62.727 105.874 182.005 147.726 183.261 148.145C184.516 148.563 187.787 148.761 189.12 148.145Z" fill="white"/>
<path d="M56.372 157.101C56.372 160.868 55.535 188.49 56.372 191.42C57.209 194.349 62.6498 196.442 62.6498 196.442C62.6498 196.442 64.3239 197.698 70.1831 196.442C76.0424 195.186 160.165 164.216 162.257 162.96C164.35 161.705 163.513 159.194 162.257 158.775C161.002 158.357 108.268 138.268 104.92 137.849C101.572 137.431 99.061 137.849 99.061 137.849L62.6498 151.242C62.6498 151.242 56.3719 153.334 56.372 157.101Z" fill="white"/>
</svg>
